<mxfile host="app.diagrams.net" modified="2024-09-21T14:16:55.423Z" agent="Mozilla/5.0 (Windows NT 10.0; Win64; x64) AppleWebKit/537.36 (KHTML, like Gecko) Chrome/129.0.0.0 Safari/537.36" version="24.2.5" etag="hc4mC4TFY87vrTVmkmvT" type="github">
  <diagram name="Page-1" id="CscN2txpUNujKv-8Mor0">
    <mxGraphModel>
      <root>
        <mxCell id="0" />
        <mxCell id="1" parent="0" />
      </root>
    </mxGraphModel>
  </diagram>
</mxfile>
